<?xml version="1.0" standalone="no"?>
<!DOCTYPE svg PUBLIC "-//W3C//DTD SVG 20010904//EN"
 "http://www.w3.org/TR/2001/REC-SVG-20010904/DTD/svg10.dtd">
<svg version="1.0" xmlns="http://www.w3.org/2000/svg"
 width="500.000000pt" height="176.000000pt" viewBox="0 0 500.000000 176.000000"
 preserveAspectRatio="xMidYMid meet">

<g transform="translate(0.000000,176.000000) scale(0.100000,-0.100000)"
fill="#000000" stroke="none">
<path d="M755 1714 c-130 -23 -234 -60 -315 -112 -186 -120 -317 -288 -380
-487 -28 -90 -38 -268 -20 -368 56 -320 282 -577 595 -677 53 -17 103 -24 205
-27 161 -6 261 13 399 77 57 27 78 33 61 19 -14 -11 -19 -18 -12 -14 6 3 12 1
12 -5 0 -6 28 4 63 22 190 101 389 415 412 653 15 149 -40 383 -120 515 -84
138 -187 225 -390 329 -120 61 -151 72 -218 81 -103 13 -194 11 -292 -6z m369
-65 c149 -35 227 -69 312 -134 149 -115 278 -330 299 -498 4 -27 -1 -16 -15
32 -98 359 -434 600 -839 601 -89 0 -116 -4 -195 -31 -180 -60 -303 -140 -403
-264 -125 -155 -183 -309 -183 -490 0 -198 58 -340 200 -490 54 -57 70 -78 44
-57 -155 119 -264 344 -264 541 1 219 87 418 252 577 224 218 479 286 792 213z
m-6 -120 c119 -30 205 -82 307 -184 99 -99 143 -166 183 -277 34 -96 42 -270
18 -382 -34 -150 -131 -304 -254 -402 -61 -48 -217 -130 -267 -139 -16 -4 -4
5 29 19 75 32 175 99 248 165 60 54 150 185 173 250 16 47 45 234 45 294 0 65
-36 191 -80 286 -137 287 -541 435 -866 317 -112 -41 -222 -121 -289 -211 -23
-32 -17 -1 8 36 67 100 300 230 452 253 55 8 219 -6 293 -25z m-62 -290 c264
-99 343 -450 147 -645 -55 -55 -135 -100 -193 -109 -27 -4 -23 -2 15 11 56 18
139 70 175 110 14 15 0 7 -32 -18 -54 -44 -148 -88 -188 -88 -23 0 -35 -16
-18 -24 7 -3 -26 -4 -74 -3 -79 3 -95 7 -163 43 -76 38 -182 134 -171 153 3 5
-6 35 -21 67 -23 50 -28 73 -28 144 0 75 4 93 32 152 18 39 51 86 78 112 51
50 147 101 215 116 62 12 160 3 226 -21z"/>
<path d="M2600 1394 c-396 -85 -539 -568 -252 -850 102 -101 278 -165 407
-149 133 17 227 59 318 145 226 211 206 574 -42 760 -66 50 -127 78 -211 96
-80 17 -136 17 -220 -2z m250 -260 c87 -47 138 -133 139 -236 2 -114 -88 -228
-202 -259 -138 -37 -302 52 -338 184 -18 67 -6 160 28 215 30 49 102 105 157
122 58 18 158 6 216 -26z"/>
<path d="M3310 900 l0 -510 197 2 197 3 69 115 68 115 -151 3 -150 3 0 389 0
390 -115 0 -115 0 0 -510z"/>
<path d="M4377 1389 c-24 -38 -567 -991 -567 -995 0 -2 60 -4 133 -4 l132 0
155 270 c85 148 157 269 160 270 3 0 74 -122 158 -270 l153 -270 134 0 c74 0
135 2 135 4 0 2 -130 232 -289 511 -280 492 -289 507 -304 484z"/>
</g>
</svg>
