<?xml version="1.0" standalone="no"?>
<!DOCTYPE svg PUBLIC "-//W3C//DTD SVG 20010904//EN"
 "http://www.w3.org/TR/2001/REC-SVG-20010904/DTD/svg10.dtd">
<svg version="1.0" xmlns="http://www.w3.org/2000/svg"
 width="500.000000pt" height="174.000000pt" viewBox="0 0 500.000000 174.000000"
 preserveAspectRatio="xMidYMid meet">

<g transform="translate(0.000000,174.000000) scale(0.100000,-0.100000)"
fill="#000000" stroke="none">
<path d="M0 1171 c0 -613 3 -655 53 -778 74 -183 233 -320 427 -369 86 -22
245 -22 329 0 84 23 167 65 235 121 l56 45 0 -80 0 -80 125 0 125 0 0 855 0
855 -130 0 -130 0 0 -574 c0 -639 0 -637 -70 -746 -135 -210 -441 -249 -625
-79 -56 51 -91 109 -116 190 -18 57 -19 101 -19 635 l0 574 -130 0 -130 0 0
-569z"/>
<path d="M1550 885 l0 -855 120 0 120 0 0 75 c0 41 3 75 6 75 3 0 24 -15 46
-34 176 -151 450 -182 673 -77 167 79 303 241 351 421 22 85 23 234 0 320 -30
120 -81 206 -175 300 -134 133 -270 190 -456 190 -148 0 -280 -46 -391 -136
l-54 -44 0 310 0 310 -120 0 -120 0 0 -855z m803 176 c111 -39 196 -117 250
-231 29 -60 31 -73 32 -175 0 -103 -2 -114 -32 -178 -143 -302 -534 -343 -734
-77 -87 115 -105 299 -42 430 54 115 138 191 258 232 70 24 196 24 268 -1z"/>
<path d="M3452 1280 c-222 -58 -404 -246 -457 -473 -19 -80 -19 -225 1 -307
24 -104 80 -206 158 -288 78 -82 147 -127 256 -168 69 -25 87 -28 220 -28 167
-1 238 15 349 81 58 35 191 154 191 172 0 4 -39 35 -86 70 l-86 62 -57 -54
c-71 -68 -140 -103 -231 -119 -133 -23 -265 19 -364 116 -53 51 -100 134 -112
193 l-6 33 503 2 504 3 -2 99 c-3 118 -21 194 -70 296 -45 93 -157 210 -250
258 -134 70 -313 91 -461 52z m289 -215 c98 -33 212 -156 236 -254 l11 -41
-380 0 -379 0 6 23 c15 50 58 127 94 169 44 50 138 104 203 118 54 11 152 4
209 -15z"/>
<path d="M4847 1280 c-70 -12 -129 -45 -181 -100 l-45 -48 -3 71 -3 72 -120 0
-120 0 0 -620 0 -620 122 -3 122 -3 3 408 c3 390 4 410 24 454 52 112 127 159
265 167 l89 5 0 113 0 114 -52 -1 c-29 -1 -74 -5 -101 -9z"/>
</g>
</svg>
